Simulation
nRows=45
nColumns=15
endheader
time  TH_x TH_y TH_z SC_y  SC_z  SC_x  AC_y  AC_z  AC_x  GH_y  GH_z  GH_yy  EL_x  PS_y
0.0  0.000000  0.000000  0.000000  -28.800924608326838  2.0014611205484147  17.49532283800185  57.17776477802086  8.990400705135535  0.12450426546526008  56.091571926827115  48.16621029598826  -53.345738587983284  23.91997453187382  0.000000
0.04  0.000000  0.000000  0.000000  -28.84144122343341  2.1388443529761574  18.22591974789054  56.31772784064962  9.050014451249274  1.0571961656923115  55.46973473283482  49.34235647652562  -52.641330442703634  24.35236775770108  0.000000
0.08  0.000000  0.000000  0.000000  -28.621937988755217  2.313954559755206  18.614026032287487  55.872930490834975  8.785814398192516  1.600629492085315  54.94966011776214  49.93106668882354  -51.76262487914902  24.582453116250235  0.000000
0.12  0.000000  0.000000  0.000000  -28.528661156472445  2.387822071230848  18.764401716986008  55.794079169651795  8.617438482951728  1.866912109702748  54.61160747858485  50.18447766258149  -50.95327110257296  24.69298646899658  0.000000
0.16  0.000000  0.000000  0.000000  -28.39634171387061  2.521448483400868  18.766570408956703  55.68887343584937  8.489646103282048  2.0692544367118364  54.223827140438544  50.287244279348236  -49.822055429617016  24.69308366765724  0.000000
0.2  0.000000  0.000000  0.000000  -28.33446384140847  2.616011278060174  18.69684875139333  55.594845984356525  8.454458646979809  2.273509776681223  53.71373369503865  50.377591303637914  -48.4084007400001  24.622036378950796  0.000000
0.24  0.000000  0.000000  0.000000  -28.285682370292264  2.7746766582368094  18.576407817622197  55.44738029784099  8.479987408070853  2.5386751099977563  53.02285534349102  50.562768869511736  -46.600444957847046  24.54067569973519  0.000000
0.28  0.000000  0.000000  0.000000  -28.29125214881702  2.9510961729765146  18.407442248571094  55.2875650373033  8.544004030754671  2.912784591031004  52.18656018587445  50.927539247298604  -44.43595546076102  24.50099014007466  0.000000
0.32  0.000000  0.000000  0.000000  -28.322027358952568  3.1954300586490483  18.192123324417434  55.138550198849074  8.657592079285878  3.404509380869007  51.28018574572177  51.50197829466392  -42.00319727590101  24.54571120759761  0.000000
0.36  0.000000  0.000000  0.000000  -28.389178806992664  3.4763006231439917  17.9222556988995  54.995652052985776  8.794234657555267  4.058218835149561  50.39762713538876  52.302777156396836  -39.39898361920089  24.660247104726327  0.000000
0.4  0.000000  0.000000  0.000000  -28.473424756286963  3.807464140008148  17.594026043130714  54.87037701615616  8.996395339753018  4.876449432188026  49.64195029452047  53.28644941658853  -36.8175359406974  24.83491423308769  0.000000
0.44  0.000000  0.000000  0.000000  -28.586930707314647  4.1620697538474465  17.204294645315112  54.74913215401121  9.255876334642014  5.8817731669270366  49.085474050725566  54.425515539593086  -34.32451127271269  25.037649180090785  0.000000
0.48  0.000000  0.000000  0.000000  -28.722237557842607  4.528753589794901  16.745977703551247  54.63425452052159  9.619277860188179  7.070738716185338  48.78687635899274  55.64415482627913  -32.06278002206922  25.234620238920435  0.000000
0.52  0.000000  0.000000  0.000000  -28.891871826605676  4.876612292965593  16.221780087822786  54.51528316903026  10.095260371431568  8.43815925158408  48.78770022377727  56.893445251060754  -30.03101133725103  25.378321600692896  0.000000
0.56  0.000000  0.000000  0.000000  -29.091221340913343  5.1826359818304795  15.630476740091195  54.39629949039333  10.701685105920218  9.964322955446136  49.111925839651995  58.10879685241533  -28.27644090768961  25.446137152777254  0.000000
0.6  0.000000  0.000000  0.000000  -29.32574261229924  5.432441134623591  14.984721279344836  54.290012603261225  11.43326765467934  11.615440865872104  49.76401745539493  59.25499589233511  -26.750579510275035  25.400758399398782  0.000000
0.64  0.000000  0.000000  0.000000  -29.576606482311924  5.620360453521491  14.299625714180724  54.19686624832582  12.245824777318592  13.358116758545412  50.710014744374284  60.290097062402644  -25.43872977459043  25.24037870402687  0.000000
0.68  0.000000  0.000000  0.000000  -29.828617301375136  5.750472626429554  13.604682924442793  54.12295742961107  13.111235748250527  15.137182278671904  51.90647924886932  61.179719652143916  -24.327339373835247  24.95626878220766  0.000000
0.72  0.000000  0.000000  0.000000  -30.055876425469037  5.832658350817807  12.91342055916798  54.04604196979468  13.967412039127904  16.912196499734048  53.30381294406557  61.91071431316845  -23.40221270610746  24.559281376970045  0.000000
0.76  0.000000  0.000000  0.000000  -30.24046994677992  5.880370305495695  12.246424350309841  53.966577097355746  14.792530607641986  18.616394090899927  54.82937515396683  62.48920651823152  -22.64058626398245  24.081915209026533  0.000000
0.8  0.000000  0.000000  0.000000  -30.364959278038683  5.914327973855792  11.603012182185541  53.87197041949537  15.536199873637745  20.216799610840123  56.41222071990363  62.934414697768744  -22.01731998400245  23.56566464535025  0.000000
0.84  0.000000  0.000000  0.000000  -30.425913912013293  5.957069090831817  11.001281598445242  53.77257606641614  16.182191489749446  21.661864743439807  57.97105943284568  63.268290684672436  -21.52061019888574  23.0430738486742  0.000000
0.88  0.000000  0.000000  0.000000  -30.41826922214185  6.01116378302557  10.443647679486402  53.663525388732  16.711011904935216  22.91591409423123  59.44137043584016  63.51891001614969  -21.110650570910565  22.53376779693305  0.000000
0.92  0.000000  0.000000  0.000000  -30.358392271787057  6.065028329208647  9.95229859123666  53.55753176958139  17.132331018293904  23.93778883704779  60.76717422633232  63.70507352927622  -20.757789252245693  22.023165466135485  0.000000
0.96  0.000000  0.000000  0.000000  -30.260787679815216  6.108059094314056  9.531861989217902  53.452513182320374  17.45159878739475  24.702882941589134  61.903690480950495  63.85145030575486  -20.415482998587635  21.500978268968538  0.000000
1.0  0.000000  0.000000  0.000000  -30.15396909780373  6.128895003948362  9.202005666200002  53.359414328213866  17.68014323149677  25.194852437030555  62.81020996918044  63.96885541599055  -20.07951717535822  20.963493651002384  0.000000
1.04  0.000000  0.000000  0.000000  -30.045031805377537  6.126277859521199  8.964057420865682  53.27432371883078  17.821105139997183  25.417061527968603  63.45103563566119  64.06197094885641  -19.774505217292635  20.441751966896213  0.000000
1.08  0.000000  0.000000  0.000000  -29.947985754419403  6.105440272312824  8.823507242253259  53.200753299976725  17.876508051525004  25.382962649065657  63.80303401189709  64.12588896435732  -19.569164889481094  19.98346479362731  0.000000
1.12  0.000000  0.000000  0.000000  -29.86324246722754  6.072588279269089  8.778893938108181  53.13575890600771  17.847188650504812  25.112928156982388  63.86551862065693  64.14758408461029  -19.543582038039844  19.63654504195091  0.000000
1.16  0.000000  0.000000  0.000000  -29.797630714792945  6.041312739650582  8.831294295999276  53.082715091605195  17.729727369837136  24.634644939429386  63.66246918870574  64.11200261087937  -19.775698591244403  19.420447491418862  0.000000
1.2  0.000000  0.000000  0.000000  -29.748622836216246  6.019891495929824  8.979257060679231  53.04113250321658  17.52224125018977  23.974248987376455  63.24562717216092  63.99878605438374  -20.332690963583048  19.328107340733315  0.000000
1.24  0.000000  0.000000  0.000000  -29.723703819040203  6.02275259914604  9.22187505600276  53.01531133205495  17.222045938196636  23.15869267958859  62.679673045350945  63.78821150522422  -21.267972715529318  19.336035674671308  0.000000
1.28  0.000000  0.000000  0.000000  -29.722179900681898  6.04146197417372  9.558087215470149  53.008482603829286  16.834890028469015  22.205851425720358  62.03889845515432  63.45095120599615  -22.631376764863735  19.42244421364368  0.000000
1.32  0.000000  0.000000  0.000000  -29.765285305512833  6.051354834911925  9.992824710794794  53.030923319667785  16.38280755640328  21.128768799593843  61.40167142941555  62.95086263990389  -24.44111362741306  19.579042957605413  0.000000
1.36  0.000000  0.000000  0.000000  -29.872387060195074  6.0290216542057165  10.526209496030418  53.09267335148972  15.900709890536254  19.917800253827924  60.83879853851199  62.2659599832827  -26.684678681123113  19.804122864738805  0.000000
1.4000000000000001  0.000000  0.000000  0.000000  -30.05217296122143  5.946629941317755  11.136070736928417  53.21176317348846  15.427453440184973  18.561674594480092  60.37203451228085  61.39245706616918  -29.299822836933817  20.098129379117356  0.000000
1.44  0.000000  0.000000  0.000000  -30.261131344812007  5.794978673198396  11.789587249952824  53.382169876145866  14.965838352919755  17.08229035552953  59.97057956162178  60.337144489790525  -32.20603464443867  20.456412523490144  0.000000
1.48  0.000000  0.000000  0.000000  -30.467886665959067  5.597321490814895  12.454412546525681  53.59375091481108  14.506149654063156  15.534343066787928  59.60039192477647  59.13726753094893  -35.32922942171578  20.90404928810504  0.000000
1.52  0.000000  0.000000  0.000000  -30.65271457497148  5.377509216875418  13.117148754237569  53.832653842878514  14.051197567475288  13.959286501705542  59.27258839036717  57.846235584398215  -38.57772185379794  21.48672811378613  0.000000
1.56  0.000000  0.000000  0.000000  -30.781007157424035  5.146337585250836  13.74507048177433  54.06390571527609  13.595735288124276  12.424234533072472  59.00104786562982  56.51520621056511  -41.852690844162055  22.138590291888182  0.000000
1.6  0.000000  0.000000  0.000000  -30.829390821164477  4.908115510018251  14.317885389383521  54.25610162397855  13.14004181185765  10.978307890948221  58.809147430153416  55.18574074960935  -45.03571893871423  22.757646471917518  0.000000
1.6400000000000001  0.000000  0.000000  0.000000  -30.8192660001953  4.676272608473811  14.838124248065348  54.42518704482617  12.699250664592086  9.6303730278142  58.71987869691829  53.92174472328932  -47.9521101031769  23.304090035252557  0.000000
1.68  0.000000  0.000000  0.000000  -30.764545785497692  4.454980598078155  15.308818735827353  54.591338612908125  12.269568705544447  8.397424375908168  58.74156496205564  52.779210680828385  -50.49478639676076  23.721432763811002  0.000000
1.72  0.000000  0.000000  0.000000  -30.67455504703207  4.245251686384212  15.741658923121337  54.75443227095059  11.851113651172277  7.2971400106773485  58.858206368834146  51.78035213181075  -52.62927623269198  23.96830765596007  0.000000
1.76  0.000000  0.000000  0.000000  -30.549710736177655  4.04646131617756  16.139185090962883  54.91123065953531  11.447560506277078  6.343690321518612  59.03448031382609  50.92713957150953  -54.36288047629209  24.048734840184675  0.000000
